<svg width="17" height="17" viewBox="0 0 17 17" fill="none" xmlns="http://www.w3.org/2000/svg">
<path d="M6.97949 13.2466C8.35742 13.2466 9.64404 12.7983 10.6899 12.0513L14.6245 15.9858C14.8071 16.1685 15.0479 16.2598 15.2969 16.2598C15.8364 16.2598 16.2266 15.8447 16.2266 15.3135C16.2266 15.0645 16.1436 14.832 15.9609 14.6494L12.0513 10.7314C12.873 9.65234 13.3628 8.31592 13.3628 6.86328C13.3628 3.35205 10.4907 0.47998 6.97949 0.47998C3.45996 0.47998 0.596191 3.35205 0.596191 6.86328C0.596191 10.3745 3.45996 13.2466 6.97949 13.2466ZM6.97949 11.8687C4.23193 11.8687 1.97412 9.60254 1.97412 6.86328C1.97412 4.12402 4.23193 1.85791 6.97949 1.85791C9.71875 1.85791 11.9849 4.12402 11.9849 6.86328C11.9849 9.60254 9.71875 11.8687 6.97949 11.8687Z" fill="#3C3C43" fill-opacity="0.6"/>
</svg>
